# xmcd
#
# Track frame offsets:
#	150
#	21479
#	46981
#	61770
#	76623
#	101086
#	121870
#	144580
#	171430
#	185441
#	196213
#	211134
#	232148
#	252887
#	294308
#
# Disc length: 4690 seconds
# Revision: 0
# Processed by: cddbd v1.5.2PL0 Copyright (c) Steve Scherf et al.
# Submitted via: dBpowerAMP V12.0
#
DISCID=d012500f
DTITLE=Voo Davis - Midnight Mist
DYEAR=2015
DGENRE=Blues
TTITLE0=When I Get Back To You
TTITLE1=Midnight Mist
TTITLE2=My Love
TTITLE3=Cajun Sun
TTITLE4=Riverside Blues
TTITLE5=Low Hangin' Fruit
TTITLE6=Howling Out Your Name
TTITLE7=Find Me A Blackbone
TTITLE8=Nothing Changed At All
TTITLE9=Music In The Streets
TTITLE10=You Gotta Wait
TTITLE11=Laughin' Out Loud
TTITLE12=Void
TTITLE13=You Wanna Know Why
TTITLE14=DATA
EXTD=
EXTT0=
EXTT1=
EXTT2=
EXTT3=
EXTT4=
EXTT5=
EXTT6=
EXTT7=
EXTT8=
EXTT9=
EXTT10=
EXTT11=
EXTT12=
EXTT13=
EXTT14=
PLAYORDER=
